<mxfile host="app.diagrams.net" modified="2022-05-11T09:36:03.657Z" agent="5.0 (Windows)" etag="eh3J1VVRt4EtQoM40mLg" version="18.0.2" type="github">
  <diagram id="iwq4ghCz7CKJckMCxrX-" name="Page-1">
    <mxGraphModel dx="1038" dy="536" grid="1" gridSize="10" guides="1" tooltips="1" connect="1" arrows="1" fold="1" page="1" pageScale="1" pageWidth="827" pageHeight="1169" math="0" shadow="0">
      <root>
        <mxCell id="0" />
        <mxCell id="1" parent="0" />
        <mxCell id="6QNaUiu0Om-gke8q8EjU-1" value="Actor" style="shape=umlActor;verticalLabelPosition=bottom;verticalAlign=top;html=1;outlineConnect=0;" vertex="1" parent="1">
          <mxGeometry x="80" y="200" width="30" height="60" as="geometry" />
        </mxCell>
        <mxCell id="6QNaUiu0Om-gke8q8EjU-2" value="Login" style="rounded=1;whiteSpace=wrap;html=1;" vertex="1" parent="1">
          <mxGeometry x="180" y="135" width="80" height="40" as="geometry" />
        </mxCell>
        <mxCell id="6QNaUiu0Om-gke8q8EjU-3" value="Search dish" style="rounded=1;whiteSpace=wrap;html=1;" vertex="1" parent="1">
          <mxGeometry x="180" y="192" width="80" height="40" as="geometry" />
        </mxCell>
        <mxCell id="6QNaUiu0Om-gke8q8EjU-4" value="Search restaurant" style="rounded=1;whiteSpace=wrap;html=1;" vertex="1" parent="1">
          <mxGeometry x="180" y="239" width="80" height="40" as="geometry" />
        </mxCell>
        <mxCell id="6QNaUiu0Om-gke8q8EjU-5" value="Search price" style="rounded=1;whiteSpace=wrap;html=1;" vertex="1" parent="1">
          <mxGeometry x="180" y="288" width="80" height="40" as="geometry" />
        </mxCell>
        <mxCell id="6QNaUiu0Om-gke8q8EjU-6" value="Follow cooking/delivery" style="rounded=1;whiteSpace=wrap;html=1;" vertex="1" parent="1">
          <mxGeometry x="180" y="54" width="80" height="40" as="geometry" />
        </mxCell>
        <mxCell id="6QNaUiu0Om-gke8q8EjU-7" value="Register Payment" style="rounded=1;whiteSpace=wrap;html=1;" vertex="1" parent="1">
          <mxGeometry x="180" y="340" width="80" height="40" as="geometry" />
        </mxCell>
        <mxCell id="6QNaUiu0Om-gke8q8EjU-8" value="Payment" style="rounded=1;whiteSpace=wrap;html=1;" vertex="1" parent="1">
          <mxGeometry x="180" y="390" width="80" height="40" as="geometry" />
        </mxCell>
        <mxCell id="6QNaUiu0Om-gke8q8EjU-9" value="Check Payment" style="rounded=1;whiteSpace=wrap;html=1;arcSize=38;" vertex="1" parent="1">
          <mxGeometry x="380" y="330" width="80" height="40" as="geometry" />
        </mxCell>
        <mxCell id="6QNaUiu0Om-gke8q8EjU-10" value="" style="shape=mxgraph.signs.travel.bank;html=1;pointerEvents=1;fillColor=#000000;strokeColor=none;verticalLabelPosition=bottom;verticalAlign=top;align=center;" vertex="1" parent="1">
          <mxGeometry x="597" y="333" width="99" height="86" as="geometry" />
        </mxCell>
        <mxCell id="6QNaUiu0Om-gke8q8EjU-14" value="" style="endArrow=none;html=1;rounded=0;exitX=1;exitY=0.5;exitDx=0;exitDy=0;entryX=0;entryY=0.5;entryDx=0;entryDy=0;" edge="1" parent="1" source="6QNaUiu0Om-gke8q8EjU-7" target="6QNaUiu0Om-gke8q8EjU-9">
          <mxGeometry width="50" height="50" relative="1" as="geometry">
            <mxPoint x="350" y="450" as="sourcePoint" />
            <mxPoint x="400" y="400" as="targetPoint" />
          </mxGeometry>
        </mxCell>
        <mxCell id="6QNaUiu0Om-gke8q8EjU-15" value="" style="endArrow=none;html=1;rounded=0;exitX=1;exitY=0.5;exitDx=0;exitDy=0;entryX=0;entryY=0.5;entryDx=0;entryDy=0;" edge="1" parent="1" source="6QNaUiu0Om-gke8q8EjU-8" target="6QNaUiu0Om-gke8q8EjU-9">
          <mxGeometry width="50" height="50" relative="1" as="geometry">
            <mxPoint x="270" y="370" as="sourcePoint" />
            <mxPoint x="390" y="360" as="targetPoint" />
          </mxGeometry>
        </mxCell>
        <mxCell id="6QNaUiu0Om-gke8q8EjU-16" value="" style="endArrow=none;html=1;rounded=0;exitX=1;exitY=0.5;exitDx=0;exitDy=0;entryX=0.03;entryY=0.65;entryDx=0;entryDy=0;entryPerimeter=0;" edge="1" parent="1" source="6QNaUiu0Om-gke8q8EjU-9" target="6QNaUiu0Om-gke8q8EjU-10">
          <mxGeometry width="50" height="50" relative="1" as="geometry">
            <mxPoint x="270" y="420" as="sourcePoint" />
            <mxPoint x="390" y="360" as="targetPoint" />
          </mxGeometry>
        </mxCell>
        <mxCell id="6QNaUiu0Om-gke8q8EjU-17" value="" style="endArrow=none;html=1;rounded=0;exitX=1;exitY=0.5;exitDx=0;exitDy=0;entryX=0;entryY=0.5;entryDx=0;entryDy=0;" edge="1" parent="1" target="6QNaUiu0Om-gke8q8EjU-8">
          <mxGeometry width="50" height="50" relative="1" as="geometry">
            <mxPoint x="100" y="240" as="sourcePoint" />
            <mxPoint x="252.97000000000003" y="275.9" as="targetPoint" />
          </mxGeometry>
        </mxCell>
        <mxCell id="6QNaUiu0Om-gke8q8EjU-18" value="" style="endArrow=none;html=1;rounded=0;exitX=0.5;exitY=0.5;exitDx=0;exitDy=0;entryX=0;entryY=0.75;entryDx=0;entryDy=0;exitPerimeter=0;" edge="1" parent="1" source="6QNaUiu0Om-gke8q8EjU-1" target="6QNaUiu0Om-gke8q8EjU-7">
          <mxGeometry width="50" height="50" relative="1" as="geometry">
            <mxPoint x="110" y="250" as="sourcePoint" />
            <mxPoint x="190" y="420" as="targetPoint" />
          </mxGeometry>
        </mxCell>
        <mxCell id="6QNaUiu0Om-gke8q8EjU-19" value="" style="endArrow=none;html=1;rounded=0;exitX=0.5;exitY=0.5;exitDx=0;exitDy=0;entryX=0;entryY=0.5;entryDx=0;entryDy=0;exitPerimeter=0;" edge="1" parent="1" source="6QNaUiu0Om-gke8q8EjU-1" target="6QNaUiu0Om-gke8q8EjU-6">
          <mxGeometry width="50" height="50" relative="1" as="geometry">
            <mxPoint x="105" y="240" as="sourcePoint" />
            <mxPoint x="190" y="380" as="targetPoint" />
          </mxGeometry>
        </mxCell>
        <mxCell id="6QNaUiu0Om-gke8q8EjU-20" value="" style="endArrow=none;html=1;rounded=0;exitX=0.5;exitY=0.5;exitDx=0;exitDy=0;entryX=0;entryY=0.5;entryDx=0;entryDy=0;exitPerimeter=0;" edge="1" parent="1" source="6QNaUiu0Om-gke8q8EjU-1" target="6QNaUiu0Om-gke8q8EjU-5">
          <mxGeometry width="50" height="50" relative="1" as="geometry">
            <mxPoint x="105" y="240" as="sourcePoint" />
            <mxPoint x="190" y="320" as="targetPoint" />
          </mxGeometry>
        </mxCell>
        <mxCell id="6QNaUiu0Om-gke8q8EjU-21" value="" style="endArrow=none;html=1;rounded=0;exitX=0.5;exitY=0.5;exitDx=0;exitDy=0;entryX=0;entryY=0.75;entryDx=0;entryDy=0;exitPerimeter=0;" edge="1" parent="1" source="6QNaUiu0Om-gke8q8EjU-1" target="6QNaUiu0Om-gke8q8EjU-4">
          <mxGeometry width="50" height="50" relative="1" as="geometry">
            <mxPoint x="105" y="240" as="sourcePoint" />
            <mxPoint x="190" y="270" as="targetPoint" />
          </mxGeometry>
        </mxCell>
        <mxCell id="6QNaUiu0Om-gke8q8EjU-22" value="" style="endArrow=none;html=1;rounded=0;entryX=0;entryY=0.75;entryDx=0;entryDy=0;" edge="1" parent="1" target="6QNaUiu0Om-gke8q8EjU-3">
          <mxGeometry width="50" height="50" relative="1" as="geometry">
            <mxPoint x="100" y="230" as="sourcePoint" />
            <mxPoint x="190" y="220" as="targetPoint" />
          </mxGeometry>
        </mxCell>
        <mxCell id="6QNaUiu0Om-gke8q8EjU-23" value="" style="endArrow=none;html=1;rounded=0;entryX=0;entryY=0.5;entryDx=0;entryDy=0;" edge="1" parent="1" target="6QNaUiu0Om-gke8q8EjU-2">
          <mxGeometry width="50" height="50" relative="1" as="geometry">
            <mxPoint x="100" y="230" as="sourcePoint" />
            <mxPoint x="190" y="167" as="targetPoint" />
          </mxGeometry>
        </mxCell>
        <mxCell id="6QNaUiu0Om-gke8q8EjU-24" value="" style="shape=image;html=1;verticalAlign=top;verticalLabelPosition=bottom;labelBackgroundColor=#ffffff;imageAspect=0;aspect=fixed;image=https://cdn1.iconfinder.com/data/icons/unicons-line-vol-5/24/restaurant-128.png" vertex="1" parent="1">
          <mxGeometry x="595.5" y="42" width="128" height="128" as="geometry" />
        </mxCell>
        <mxCell id="6QNaUiu0Om-gke8q8EjU-25" value="Check requests" style="rounded=1;whiteSpace=wrap;html=1;arcSize=38;" vertex="1" parent="1">
          <mxGeometry x="380" y="130" width="80" height="40" as="geometry" />
        </mxCell>
        <mxCell id="6QNaUiu0Om-gke8q8EjU-26" value="Request" style="rounded=1;whiteSpace=wrap;html=1;" vertex="1" parent="1">
          <mxGeometry x="180" y="101" width="80" height="40" as="geometry" />
        </mxCell>
        <mxCell id="6QNaUiu0Om-gke8q8EjU-27" value="" style="endArrow=none;html=1;rounded=0;entryX=0;entryY=0.5;entryDx=0;entryDy=0;exitX=0.5;exitY=0.5;exitDx=0;exitDy=0;exitPerimeter=0;" edge="1" parent="1" source="6QNaUiu0Om-gke8q8EjU-1" target="6QNaUiu0Om-gke8q8EjU-26">
          <mxGeometry width="50" height="50" relative="1" as="geometry">
            <mxPoint x="110" y="240" as="sourcePoint" />
            <mxPoint x="190" y="116" as="targetPoint" />
          </mxGeometry>
        </mxCell>
        <mxCell id="6QNaUiu0Om-gke8q8EjU-28" value="" style="endArrow=none;html=1;rounded=0;exitX=1;exitY=0.75;exitDx=0;exitDy=0;entryX=0;entryY=0.5;entryDx=0;entryDy=0;" edge="1" parent="1" source="6QNaUiu0Om-gke8q8EjU-26" target="6QNaUiu0Om-gke8q8EjU-25">
          <mxGeometry width="50" height="50" relative="1" as="geometry">
            <mxPoint x="470" y="360" as="sourcePoint" />
            <mxPoint x="622.97" y="395.9" as="targetPoint" />
          </mxGeometry>
        </mxCell>
        <mxCell id="6QNaUiu0Om-gke8q8EjU-29" value="" style="endArrow=none;html=1;rounded=0;exitX=1;exitY=0.5;exitDx=0;exitDy=0;" edge="1" parent="1" source="6QNaUiu0Om-gke8q8EjU-25" target="6QNaUiu0Om-gke8q8EjU-24">
          <mxGeometry width="50" height="50" relative="1" as="geometry">
            <mxPoint x="270" y="80" as="sourcePoint" />
            <mxPoint x="424" y="166" as="targetPoint" />
          </mxGeometry>
        </mxCell>
        <mxCell id="6QNaUiu0Om-gke8q8EjU-30" value="" style="shape=cylinder3;whiteSpace=wrap;html=1;boundedLbl=1;backgroundOutline=1;size=15;" vertex="1" parent="1">
          <mxGeometry x="628" y="188" width="60" height="80" as="geometry" />
        </mxCell>
        <mxCell id="6QNaUiu0Om-gke8q8EjU-31" value="Upload options" style="rounded=1;whiteSpace=wrap;html=1;arcSize=38;" vertex="1" parent="1">
          <mxGeometry x="380" y="220" width="80" height="40" as="geometry" />
        </mxCell>
        <mxCell id="6QNaUiu0Om-gke8q8EjU-33" value="" style="endArrow=none;html=1;rounded=0;exitX=1;exitY=0.5;exitDx=0;exitDy=0;entryX=0;entryY=0.5;entryDx=0;entryDy=0;" edge="1" parent="1" source="6QNaUiu0Om-gke8q8EjU-2" target="6QNaUiu0Om-gke8q8EjU-25">
          <mxGeometry width="50" height="50" relative="1" as="geometry">
            <mxPoint x="270" y="80" as="sourcePoint" />
            <mxPoint x="370" y="150" as="targetPoint" />
          </mxGeometry>
        </mxCell>
        <mxCell id="6QNaUiu0Om-gke8q8EjU-35" value="" style="endArrow=none;html=1;rounded=0;exitX=1;exitY=0.5;exitDx=0;exitDy=0;entryX=0;entryY=0.5;entryDx=0;entryDy=0;entryPerimeter=0;" edge="1" parent="1" target="6QNaUiu0Om-gke8q8EjU-30">
          <mxGeometry width="50" height="50" relative="1" as="geometry">
            <mxPoint x="460" y="238" as="sourcePoint" />
            <mxPoint x="580" y="282" as="targetPoint" />
          </mxGeometry>
        </mxCell>
        <mxCell id="6QNaUiu0Om-gke8q8EjU-36" value="" style="endArrow=none;html=1;rounded=0;exitX=1;exitY=0.5;exitDx=0;exitDy=0;entryX=0;entryY=0.5;entryDx=0;entryDy=0;" edge="1" parent="1" source="6QNaUiu0Om-gke8q8EjU-3" target="6QNaUiu0Om-gke8q8EjU-31">
          <mxGeometry width="50" height="50" relative="1" as="geometry">
            <mxPoint x="260" y="158" as="sourcePoint" />
            <mxPoint x="430" y="180" as="targetPoint" />
          </mxGeometry>
        </mxCell>
        <mxCell id="6QNaUiu0Om-gke8q8EjU-37" value="" style="endArrow=none;html=1;rounded=0;exitX=1;exitY=0.5;exitDx=0;exitDy=0;" edge="1" parent="1" source="6QNaUiu0Om-gke8q8EjU-4">
          <mxGeometry width="50" height="50" relative="1" as="geometry">
            <mxPoint x="270" y="168" as="sourcePoint" />
            <mxPoint x="380" y="240" as="targetPoint" />
          </mxGeometry>
        </mxCell>
        <mxCell id="6QNaUiu0Om-gke8q8EjU-38" value="" style="endArrow=none;html=1;rounded=0;exitX=1;exitY=0.5;exitDx=0;exitDy=0;entryX=0;entryY=0.5;entryDx=0;entryDy=0;" edge="1" parent="1" source="6QNaUiu0Om-gke8q8EjU-5" target="6QNaUiu0Om-gke8q8EjU-31">
          <mxGeometry width="50" height="50" relative="1" as="geometry">
            <mxPoint x="270" y="220" as="sourcePoint" />
            <mxPoint x="390" y="250" as="targetPoint" />
          </mxGeometry>
        </mxCell>
        <mxCell id="6QNaUiu0Om-gke8q8EjU-41" value="" style="endArrow=none;html=1;rounded=0;exitX=1;exitY=0.5;exitDx=0;exitDy=0;entryX=0;entryY=0.5;entryDx=0;entryDy=0;" edge="1" parent="1" source="6QNaUiu0Om-gke8q8EjU-6" target="6QNaUiu0Om-gke8q8EjU-25">
          <mxGeometry width="50" height="50" relative="1" as="geometry">
            <mxPoint x="270" y="141" as="sourcePoint" />
            <mxPoint x="390" y="160" as="targetPoint" />
          </mxGeometry>
        </mxCell>
      </root>
    </mxGraphModel>
  </diagram>
</mxfile>
